<svg width="146" height="36" viewBox="0 0 146 36" fill="none" xmlns="http://www.w3.org/2000/svg">
<rect width="146" height="33" rx="3" fill="white"/>
<path d="M30.7681 19.9126L33.4268 11.3359H35.6606L31.896 22H30.4092L30.7681 19.9126ZM28.3145 11.3359L30.9585 19.9126L31.3394 22H29.8379L26.0879 11.3359H28.3145ZM38.9636 14.0752V22H37.0227V14.0752H38.9636ZM36.8908 12.0024C36.8908 11.7144 36.9885 11.4751 37.1838 11.2847C37.384 11.0942 37.6525 10.999 37.9895 10.999C38.3264 10.999 38.5925 11.0942 38.7878 11.2847C38.988 11.4751 39.0881 11.7144 39.0881 12.0024C39.0881 12.2856 38.988 12.5225 38.7878 12.7129C38.5925 12.9033 38.3264 12.9985 37.9895 12.9985C37.6525 12.9985 37.384 12.9033 37.1838 12.7129C36.9885 12.5225 36.8908 12.2856 36.8908 12.0024ZM44.6688 22.1465C44.0683 22.1465 43.5287 22.0488 43.0502 21.8535C42.5717 21.6582 42.164 21.3872 41.8271 21.0405C41.495 20.689 41.2387 20.2812 41.058 19.8174C40.8822 19.3486 40.7943 18.8457 40.7943 18.3086V18.0156C40.7943 17.4053 40.8822 16.8511 41.058 16.353C41.2338 15.8501 41.4828 15.418 41.8051 15.0566C42.1273 14.6953 42.5131 14.417 42.9623 14.2217C43.4115 14.0264 43.9071 13.9287 44.4491 13.9287C45.0106 13.9287 45.5063 14.0239 45.9359 14.2144C46.3656 14.3999 46.7245 14.6636 47.0126 15.0054C47.3007 15.3472 47.518 15.7573 47.6645 16.2358C47.8109 16.7095 47.8842 17.2344 47.8842 17.8105V18.6235H41.6732V17.2905H45.9799V17.144C45.9701 16.8364 45.9115 16.5557 45.8041 16.3018C45.6967 16.043 45.5307 15.8379 45.3061 15.6865C45.0814 15.5303 44.7909 15.4521 44.4345 15.4521C44.1464 15.4521 43.8949 15.5156 43.6801 15.6426C43.4701 15.7646 43.2943 15.9404 43.1527 16.1699C43.016 16.3945 42.9135 16.6631 42.8451 16.9756C42.7768 17.2881 42.7426 17.6348 42.7426 18.0156V18.3086C42.7426 18.6406 42.7865 18.9482 42.8744 19.2314C42.9672 19.5146 43.1015 19.7612 43.2772 19.9712C43.4579 20.1763 43.6728 20.3374 43.9218 20.4546C44.1757 20.5669 44.4638 20.623 44.786 20.623C45.1913 20.623 45.5575 20.5449 45.8847 20.3887C46.2167 20.2275 46.5048 19.9907 46.7489 19.6782L47.723 20.689C47.557 20.9331 47.3324 21.1675 47.0492 21.3921C46.7709 21.6167 46.434 21.7998 46.0385 21.9414C45.643 22.0781 45.1864 22.1465 44.6688 22.1465ZM51.6852 20.0957L53.421 14.0752H54.6515L54.2853 16.1553L52.5348 22H51.4728L51.6852 20.0957ZM50.7257 14.0752L52.0294 20.1104L52.1466 22H50.9234L48.8434 14.0752H50.7257ZM56.2628 20.0225L57.5372 14.0752H59.4122L57.3468 22H56.1236L56.2628 20.0225ZM54.8419 14.0752L56.5631 20.0371L56.7901 22H55.7281L53.963 16.1553L53.6041 14.0752H54.8419ZM66.8164 15.7012V22H64.8828V14.0752H66.7065L66.8164 15.7012ZM66.5308 17.752H65.9375C65.9375 17.2002 66.0034 16.6924 66.1353 16.2285C66.272 15.7646 66.4722 15.3618 66.7358 15.02C66.9995 14.6733 67.3242 14.4048 67.71 14.2144C68.1006 14.0239 68.5522 13.9287 69.0649 13.9287C69.4214 13.9287 69.7485 13.9824 70.0464 14.0898C70.3442 14.1924 70.6006 14.356 70.8154 14.5806C71.0352 14.8003 71.2036 15.0884 71.3208 15.4448C71.438 15.7964 71.4966 16.2188 71.4966 16.7119V22H69.563V16.9097C69.563 16.5386 69.5093 16.248 69.4019 16.0381C69.2993 15.8281 69.1504 15.6816 68.9551 15.5986C68.7598 15.5107 68.5254 15.4668 68.252 15.4668C67.9492 15.4668 67.688 15.5278 67.4683 15.6499C67.2534 15.7671 67.0752 15.9307 66.9336 16.1406C66.7969 16.3506 66.6943 16.5923 66.626 16.8657C66.5625 17.1392 66.5308 17.4346 66.5308 17.752ZM71.3501 17.3931L70.5518 17.5396C70.5566 17.0415 70.625 16.5752 70.7568 16.1406C70.8887 15.7012 71.0815 15.3179 71.3354 14.9907C71.5942 14.6587 71.9141 14.3999 72.2949 14.2144C72.6807 14.0239 73.125 13.9287 73.6279 13.9287C74.0186 13.9287 74.3701 13.9849 74.6826 14.0972C75 14.2046 75.271 14.3779 75.4956 14.6172C75.7202 14.8516 75.8911 15.1567 76.0083 15.5327C76.1304 15.9087 76.1914 16.3677 76.1914 16.9097V22H74.2432V16.9023C74.2432 16.5166 74.1895 16.2212 74.082 16.0161C73.9795 15.811 73.8306 15.6694 73.6353 15.5913C73.4399 15.5083 73.2104 15.4668 72.9468 15.4668C72.6782 15.4668 72.4438 15.5181 72.2437 15.6206C72.0483 15.7183 71.8823 15.855 71.7456 16.0308C71.6138 16.2065 71.5137 16.4116 71.4453 16.646C71.3818 16.8755 71.3501 17.1245 71.3501 17.3931ZM77.883 18.1182V17.9644C77.883 17.3833 77.966 16.8486 78.132 16.3604C78.298 15.8672 78.5397 15.4399 78.8571 15.0786C79.1745 14.7173 79.5627 14.4365 80.0217 14.2363C80.4807 14.0312 81.0031 13.9287 81.5891 13.9287C82.1848 13.9287 82.7121 14.0312 83.1711 14.2363C83.635 14.4365 84.0256 14.7173 84.343 15.0786C84.6604 15.4399 84.9021 15.8672 85.0681 16.3604C85.2341 16.8486 85.3171 17.3833 85.3171 17.9644V18.1182C85.3171 18.6943 85.2341 19.229 85.0681 19.7222C84.9021 20.2104 84.6604 20.6377 84.343 21.0039C84.0256 21.3652 83.6374 21.646 83.1784 21.8462C82.7194 22.0464 82.1945 22.1465 81.6037 22.1465C81.0178 22.1465 80.4929 22.0464 80.029 21.8462C79.5651 21.646 79.1745 21.3652 78.8571 21.0039C78.5397 20.6377 78.298 20.2104 78.132 19.7222C77.966 19.229 77.883 18.6943 77.883 18.1182ZM79.8166 17.9644V18.1182C79.8166 18.4648 79.8508 18.7896 79.9191 19.0923C79.9875 19.395 80.0925 19.6611 80.2341 19.8906C80.3757 20.1201 80.5588 20.3008 80.7834 20.4326C81.0129 20.5596 81.2863 20.623 81.6037 20.623C81.9162 20.623 82.1848 20.5596 82.4094 20.4326C82.634 20.3008 82.8171 20.1201 82.9587 19.8906C83.1052 19.6611 83.2126 19.395 83.281 19.0923C83.3493 18.7896 83.3835 18.4648 83.3835 18.1182V17.9644C83.3835 17.6226 83.3493 17.3027 83.281 17.0049C83.2126 16.7021 83.1052 16.436 82.9587 16.2065C82.8171 15.9722 82.6315 15.7891 82.4021 15.6572C82.1774 15.5205 81.9064 15.4521 81.5891 15.4521C81.2766 15.4521 81.008 15.5205 80.7834 15.6572C80.5588 15.7891 80.3757 15.9722 80.2341 16.2065C80.0925 16.436 79.9875 16.7021 79.9191 17.0049C79.8508 17.3027 79.8166 17.6226 79.8166 17.9644ZM88.9569 15.6938V22H87.0233V14.0752H88.8544L88.9569 15.6938ZM91.3666 14.0239L91.3373 15.8257C91.2299 15.8062 91.1078 15.7915 90.9711 15.7817C90.8393 15.772 90.7147 15.7671 90.5976 15.7671C90.2997 15.7671 90.0385 15.8086 89.8139 15.8916C89.5893 15.9697 89.4013 16.0845 89.2499 16.2358C89.1034 16.3872 88.9911 16.5728 88.913 16.7925C88.8349 17.0073 88.7909 17.2515 88.7812 17.5249L88.3637 17.4736C88.3637 16.9707 88.4149 16.5044 88.5175 16.0747C88.62 15.645 88.7689 15.269 88.9643 14.9468C89.1596 14.6245 89.4037 14.3755 89.6967 14.1997C89.9945 14.019 90.3363 13.9287 90.7221 13.9287C90.8295 13.9287 90.9442 13.9385 91.0663 13.958C91.1933 13.9727 91.2934 13.9946 91.3666 14.0239ZM96.1417 22.1465C95.5411 22.1465 95.0016 22.0488 94.523 21.8535C94.0445 21.6582 93.6368 21.3872 93.2999 21.0405C92.9679 20.689 92.7115 20.2812 92.5309 19.8174C92.3551 19.3486 92.2672 18.8457 92.2672 18.3086V18.0156C92.2672 17.4053 92.3551 16.8511 92.5309 16.353C92.7066 15.8501 92.9557 15.418 93.2779 15.0566C93.6002 14.6953 93.9859 14.417 94.4352 14.2217C94.8844 14.0264 95.38 13.9287 95.922 13.9287C96.4835 13.9287 96.9791 14.0239 97.4088 14.2144C97.8385 14.3999 98.1974 14.6636 98.4855 15.0054C98.7735 15.3472 98.9908 15.7573 99.1373 16.2358C99.2838 16.7095 99.357 17.2344 99.357 17.8105V18.6235H93.1461V17.2905H97.4527V17.144C97.443 16.8364 97.3844 16.5557 97.277 16.3018C97.1695 16.043 97.0035 15.8379 96.7789 15.6865C96.5543 15.5303 96.2638 15.4521 95.9073 15.4521C95.6192 15.4521 95.3678 15.5156 95.1529 15.6426C94.943 15.7646 94.7672 15.9404 94.6256 16.1699C94.4889 16.3945 94.3863 16.6631 94.318 16.9756C94.2496 17.2881 94.2154 17.6348 94.2154 18.0156V18.3086C94.2154 18.6406 94.2594 18.9482 94.3473 19.2314C94.44 19.5146 94.5743 19.7612 94.7501 19.9712C94.9308 20.1763 95.1456 20.3374 95.3946 20.4546C95.6485 20.5669 95.9366 20.623 96.2589 20.623C96.6642 20.623 97.0304 20.5449 97.3575 20.3887C97.6896 20.2275 97.9776 19.9907 98.2218 19.6782L99.1959 20.689C99.0299 20.9331 98.8053 21.1675 98.5221 21.3921C98.2438 21.6167 97.9068 21.7998 97.5113 21.9414C97.1158 22.0781 96.6593 22.1465 96.1417 22.1465Z" fill="#165069"/>
<g filter="url(#filter0_d_23_26)">
<path d="M111 17.5019H120" stroke="#165069" stroke-width="1.8" stroke-linecap="round" stroke-linejoin="round"/>
<path d="M116.818 14L120 17.5019L116.818 21.0038" stroke="#165069" stroke-width="1.8" stroke-linecap="round" stroke-linejoin="round"/>
</g>
<defs>
<filter id="filter0_d_23_26" x="98.1" y="3.05804" width="34.8" height="32.8877" filterUnits="userSpaceOnUse" color-interpolation-filters="sRGB">
<feFlood flood-opacity="0" result="BackgroundImageFix"/>
<feColorMatrix in="SourceAlpha" type="matrix" values="0 0 0 0 0 0 0 0 0 0 0 0 0 0 0 0 0 0 127 0" result="hardAlpha"/>
<feOffset dy="2"/>
<feGaussianBlur stdDeviation="6"/>
<feComposite in2="hardAlpha" operator="out"/>
<feColorMatrix type="matrix" values="0 0 0 0 0 0 0 0 0 0 0 0 0 0 0 0 0 0 0.25 0"/>
<feBlend mode="normal" in2="BackgroundImageFix" result="effect1_dropShadow_23_26"/>
<feBlend mode="normal" in="SourceGraphic" in2="effect1_dropShadow_23_26" result="shape"/>
</filter>
</defs>
</svg>
