<svg width="19" height="19" viewBox="0 0 19 19" fill="none" xmlns="http://www.w3.org/2000/svg">
<g clip-path="url(#clip0_8_69)">
<path d="M17.4673 16.6005H2.46729" stroke="#165069" stroke-width="1.51796" stroke-linecap="round"/>
<path d="M2.46729 8.35049L8.56171 3.47498C9.38348 2.81759 10.5511 2.81759 11.3729 3.47498L17.4673 8.35049" stroke="#165069" stroke-width="1.51796" stroke-linecap="round"/>
<path d="M12.5923 4.22548V2.72548C12.5923 2.51837 12.7602 2.35048 12.9673 2.35048H14.8423C15.0494 2.35048 15.2173 2.51837 15.2173 2.72548V6.47548" stroke="#165069" stroke-width="1.51796" stroke-linecap="round"/>
<path d="M3.96729 16.6005V7.22549" stroke="#165069" stroke-width="1.51796" stroke-linecap="round"/>
<path d="M15.9673 16.6005V7.22549" stroke="#165069" stroke-width="1.51796" stroke-linecap="round"/>
<path d="M12.2173 16.6004V12.8504C12.2173 11.7898 12.2173 11.2595 11.8878 10.9299C11.5583 10.6004 11.0279 10.6004 9.96729 10.6004C8.90664 10.6004 8.37629 10.6004 8.04679 10.9299C7.71728 11.2595 7.71729 11.7898 7.71729 12.8504V16.6004" stroke="#165069" stroke-width="1.51796"/>
<path d="M11.4673 7.22546C11.4673 8.05391 10.7957 8.72546 9.96729 8.72546C9.13884 8.72546 8.46729 8.05391 8.46729 7.22546C8.46729 6.39704 9.13884 5.72546 9.96729 5.72546C10.7957 5.72546 11.4673 6.39704 11.4673 7.22546Z" stroke="#165069" stroke-width="1.51796"/>
</g>
<defs>
<clipPath id="clip0_8_69">
<rect width="18" height="18" fill="white" transform="translate(0.967773 0.10051)"/>
</clipPath>
</defs>
</svg>
