<svg width="20" height="20" viewBox="0 0 20 20" fill="none" xmlns="http://www.w3.org/2000/svg">
<path d="M10.0001 7.39649C8.5665 7.39649 7.39658 8.56641 7.39658 10C7.39658 11.4336 8.5665 12.6035 10.0001 12.6035C11.4337 12.6035 12.6036 11.4336 12.6036 10C12.6036 8.56641 11.4337 7.39649 10.0001 7.39649ZM17.8087 10C17.8087 8.92188 17.8185 7.85352 17.7579 6.77734C17.6974 5.52734 17.4122 4.41797 16.4981 3.50391C15.5821 2.58789 14.4747 2.30469 13.2247 2.24414C12.1466 2.18359 11.0782 2.19336 10.002 2.19336C8.92392 2.19336 7.85556 2.18359 6.77939 2.24414C5.52939 2.30469 4.42001 2.58984 3.50595 3.50391C2.58994 4.41992 2.30673 5.52734 2.24619 6.77734C2.18564 7.85547 2.19541 8.92383 2.19541 10C2.19541 11.0762 2.18564 12.1465 2.24619 13.2227C2.30673 14.4727 2.59189 15.582 3.50595 16.4961C4.42197 17.4121 5.52939 17.6953 6.77939 17.7559C7.85751 17.8164 8.92587 17.8066 10.002 17.8066C11.0802 17.8066 12.1485 17.8164 13.2247 17.7559C14.4747 17.6953 15.5841 17.4102 16.4981 16.4961C17.4142 15.5801 17.6974 14.4727 17.7579 13.2227C17.8204 12.1465 17.8087 11.0781 17.8087 10ZM10.0001 14.0059C7.7833 14.0059 5.99423 12.2168 5.99423 10C5.99423 7.7832 7.7833 5.99414 10.0001 5.99414C12.2169 5.99414 14.006 7.7832 14.006 10C14.006 12.2168 12.2169 14.0059 10.0001 14.0059ZM14.17 6.76563C13.6524 6.76563 13.2345 6.34766 13.2345 5.83008C13.2345 5.3125 13.6524 4.89453 14.17 4.89453C14.6876 4.89453 15.1056 5.3125 15.1056 5.83008C15.1057 5.95298 15.0816 6.0747 15.0347 6.18828C14.9877 6.30186 14.9188 6.40505 14.8319 6.49195C14.745 6.57886 14.6418 6.64777 14.5282 6.69473C14.4146 6.74169 14.2929 6.76578 14.17 6.76563Z" fill="white"/>
</svg>
