<svg width="15" height="15" viewBox="0 0 15 15" fill="none" xmlns="http://www.w3.org/2000/svg">
<path d="M13.4552 10.6721C13.0152 10.2318 12.5011 9.87238 11.9365 9.6104C12.7328 8.96528 13.2408 7.9809 13.2408 6.877C13.2408 4.92934 11.6165 3.33149 9.66889 3.36137C7.75112 3.39126 6.206 4.95395 6.206 6.877C6.206 7.9809 6.71577 8.96528 7.5103 9.6104C6.94552 9.87219 6.43139 10.2316 5.99155 10.6721C5.03178 11.6336 4.48686 12.9028 4.4517 14.2563C4.45124 14.2751 4.45453 14.2937 4.46138 14.3112C4.46824 14.3287 4.47852 14.3446 4.49163 14.358C4.50473 14.3714 4.5204 14.3821 4.53769 14.3894C4.55498 14.3967 4.57356 14.4004 4.59233 14.4004H5.5767C5.65229 14.4004 5.71557 14.3407 5.71733 14.2651C5.75073 13.2456 6.16381 12.2911 6.88979 11.5668C7.26129 11.1934 7.70317 10.8973 8.18985 10.6957C8.67654 10.4942 9.19837 10.3912 9.72514 10.3926C10.7956 10.3926 11.8029 10.8092 12.5605 11.5668C13.2847 12.2911 13.6978 13.2456 13.733 14.2651C13.7347 14.3407 13.798 14.4004 13.8736 14.4004H14.858C14.8767 14.4004 14.8953 14.3967 14.9126 14.3894C14.9299 14.3821 14.9455 14.3714 14.9587 14.358C14.9718 14.3446 14.982 14.3287 14.9889 14.3112C14.9958 14.2937 14.999 14.2751 14.9986 14.2563C14.9634 12.9028 14.4185 11.6336 13.4552 10.6721ZM9.72514 9.127C9.12397 9.127 8.55795 8.89321 8.13432 8.46782C7.92172 8.25689 7.75378 8.0053 7.64053 7.72806C7.52728 7.45082 7.47103 7.1536 7.47514 6.85415C7.48041 6.27758 7.71069 5.72036 8.11323 5.30727C8.5351 4.87485 9.09936 4.63403 9.70229 4.627C10.2982 4.62173 10.8765 4.85376 11.3019 5.27036C11.7378 5.69751 11.9769 6.2688 11.9769 6.877C11.9769 7.47817 11.7431 8.04243 11.3177 8.46782C11.109 8.67752 10.8608 8.84375 10.5874 8.9569C10.3141 9.07004 10.021 9.12786 9.72514 9.127ZM5.32182 7.34106C5.306 7.18813 5.29721 7.03344 5.29721 6.877C5.29721 6.59751 5.32358 6.32505 5.3728 6.05962C5.3851 5.99633 5.3517 5.9313 5.2937 5.90493C5.05463 5.7977 4.83491 5.65005 4.64506 5.46372C4.42136 5.24682 4.24533 4.98567 4.12821 4.69693C4.01108 4.40819 3.95542 4.09821 3.96479 3.78676C3.98061 3.22251 4.20737 2.68637 4.60288 2.28208C5.03706 1.83735 5.62065 1.59477 6.24116 1.6018C6.8019 1.60708 7.34331 1.82329 7.75288 2.20649C7.89174 2.33657 8.01127 2.48071 8.11147 2.6354C8.14663 2.68989 8.21518 2.71274 8.27495 2.69165C8.58432 2.58442 8.91127 2.50883 9.24702 2.47368C9.34545 2.46313 9.4017 2.35766 9.35776 2.26977C8.78647 1.1395 7.61928 0.359031 6.26928 0.337937C4.31987 0.308054 2.69565 1.90591 2.69565 3.8518C2.69565 4.95571 3.20366 5.94008 3.99995 6.5852C3.44096 6.8436 2.92592 7.20044 2.47944 7.64692C1.51616 8.60844 0.971235 9.87758 0.936079 11.2329C0.93561 11.2516 0.938901 11.2703 0.945757 11.2878C0.952614 11.3052 0.962898 11.3211 0.976003 11.3346C0.989109 11.348 1.00477 11.3587 1.02206 11.366C1.03936 11.3733 1.05794 11.377 1.0767 11.377H2.06284C2.13842 11.377 2.2017 11.3172 2.20346 11.2416C2.23686 10.2221 2.64995 9.26762 3.37592 8.5434C3.89272 8.02661 4.52553 7.66801 5.21635 7.49399C5.28491 7.47641 5.33061 7.41137 5.32182 7.34106Z" fill="#165069"/>
</svg>
