<svg width="19" height="19" viewBox="0 0 19 19" fill="none" xmlns="http://www.w3.org/2000/svg">
<g clip-path="url(#clip0_8_107)">
<path d="M6.96728 5.44629H4.71729C4.30254 5.44629 3.96729 5.11029 3.96729 4.69629C3.96729 4.28229 4.30254 3.94629 4.71729 3.94629H6.96728C7.38203 3.94629 7.71728 4.28229 7.71728 4.69629C7.71728 5.11029 7.38203 5.44629 6.96728 5.44629ZM10.7173 8.44629H4.71729C4.30254 8.44629 3.96729 8.11029 3.96729 7.69629C3.96729 7.28229 4.30254 6.94629 4.71729 6.94629H10.7173C11.132 6.94629 11.4673 7.28229 11.4673 7.69629C11.4673 8.11029 11.132 8.44629 10.7173 8.44629ZM10.7173 11.4463H4.71729C4.30254 11.4463 3.96729 11.1103 3.96729 10.6963C3.96729 10.2823 4.30254 9.94629 4.71729 9.94629H10.7173C11.132 9.94629 11.4673 10.2823 11.4673 10.6963C11.4673 11.1103 11.132 11.4463 10.7173 11.4463Z" fill="#165069"/>
<path d="M14.4678 2.44632V8.44632C14.4678 8.85882 14.1303 9.19632 13.7178 9.19632C13.3053 9.19632 12.9678 8.85882 12.9678 8.44632V2.82132C12.9678 2.61132 12.8028 2.44632 12.5928 2.44632H2.84277C2.63277 2.44632 2.46777 2.61132 2.46777 2.82132V17.0713C2.46777 17.2813 2.63277 17.4463 2.84277 17.4463H12.5928C12.8028 17.4463 12.9678 17.2813 12.9678 17.0713V16.6963C12.9678 16.2838 13.3053 15.9463 13.7178 15.9463C14.1303 15.9463 14.4678 16.2838 14.4678 16.6963V17.4463C14.4678 18.2713 13.7928 18.9463 12.9678 18.9463H2.46777C1.64277 18.9463 0.967773 18.2713 0.967773 17.4463V2.44632C0.967773 1.62132 1.64277 0.94632 2.46777 0.94632H12.9678C13.7928 0.94632 14.4678 1.62132 14.4678 2.44632Z" fill="#165069"/>
<path d="M18.8696 9.85774C19.1021 10.2627 18.9034 10.8125 18.4234 11.09L11.1859 15.2675C11.1229 15.305 11.0539 15.332 10.9871 15.35L8.9951 15.845C8.7176 15.914 8.4551 15.8187 8.3351 15.6095C8.2136 15.401 8.2676 15.122 8.4626 14.9247L9.89285 13.4562C9.9401 13.4022 9.9956 13.364 10.0534 13.331C10.0564 13.3235 10.0624 13.3197 10.0624 13.3197L17.2999 9.14224C17.7799 8.86474 18.3559 8.96674 18.5899 9.37099L18.8704 9.85849L18.8696 9.85774Z" fill="#165069"/>
</g>
<defs>
<clipPath id="clip0_8_107">
<rect width="18" height="18" fill="white" transform="translate(0.967773 0.94632)"/>
</clipPath>
</defs>
</svg>
