<svg width="428" height="549" viewBox="0 0 428 549" fill="none" xmlns="http://www.w3.org/2000/svg">
<path d="M205.996 256.461C199.993 256.392 194.435 257.368 189.321 259.39C176.251 264.548 165.986 271.258 158.528 279.519" stroke="#BEE7EE" stroke-width="2"/>
<path d="M158.528 279.519C151.922 284.608 146.257 283.232 141.534 275.389" stroke="#CCD8DD" stroke-width="2"/>
<path d="M199.869 299.179C197.17 299.074 194.311 298.377 191.292 297.088C188.06 295.728 185.307 294.979 183.034 294.839C174.351 294.316 165.88 296.617 159.008 289.82C157.8 288.635 157.622 287.293 158.475 285.794C159.718 283.598 159.736 281.506 158.528 279.52" stroke="#A5D2DA" stroke-width="2"/>
<path d="M214.413 296.669C216.757 302.839 220.149 306.133 224.588 306.551" stroke="#A5D2DA" stroke-width="2"/>
<path d="M325.916 240.933C319.132 240.584 314.515 241.229 312.065 242.867" stroke="#86B9C6" stroke-width="2"/>
<path d="M306.364 303.048L256.5 309.218C254.795 309.427 253.729 308.712 253.303 307.074C252.806 305.122 252.291 304.303 251.758 304.616" stroke="#69D5E9" stroke-width="2"/>
<path d="M118.572 300.329C117.542 295.832 114.151 293.863 108.397 294.42" stroke="#94A9B5" stroke-width="2"/>
<path d="M205.996 256.462C199.993 256.392 194.435 257.368 189.321 259.39C176.251 264.548 165.987 271.258 158.528 279.52C151.922 284.609 146.257 283.232 141.534 275.389C151.869 255.102 168.313 240.706 190.866 232.201C216.153 222.685 240.961 213.692 265.29 205.222C275.803 201.596 275.501 199.366 264.384 198.529C260.549 198.25 256.819 198.146 253.197 198.215C248.473 198.32 248.331 197.57 252.77 195.967L299.492 179.079C299.845 178.949 300.229 178.916 300.6 178.983C300.971 179.051 301.314 179.217 301.592 179.462C301.869 179.707 302.069 180.021 302.168 180.369C302.268 180.717 302.264 181.085 302.156 181.432C293.312 213.169 285.641 226.397 252.877 237.586C236.504 243.164 220.877 249.455 205.996 256.462Z" fill="#E5EDF0"/>
<path d="M118.572 300.329C117.542 295.832 114.151 293.863 108.397 294.42C116.282 246.422 156.77 213.639 204.291 205.116C206.173 204.768 206.457 205.273 205.143 206.633C199.709 212.07 191.114 217.142 179.358 221.848C143.878 235.965 123.616 262.125 118.572 300.329Z" fill="#7490A0"/>
<path d="M325.916 240.933C319.132 240.584 314.515 241.229 312.065 242.868C308.762 238.859 304.908 235.495 300.504 232.776C300.096 232.53 299.756 232.19 299.513 231.785C299.27 231.38 299.132 230.922 299.111 230.453C299.09 229.983 299.187 229.516 299.393 229.092C299.598 228.667 299.907 228.299 300.291 228.018L303.115 225.927C305.104 224.463 307.039 224.533 308.922 226.136L325.916 240.933Z" fill="#7490A0"/>
<path d="M325.916 240.933C328.686 242.013 330.711 243.442 331.989 245.22C333.161 246.789 332.806 247.852 330.924 248.409C296.26 258.727 261.721 269.08 227.305 279.467C217.503 282.43 208.357 289.001 199.869 299.179C197.17 299.074 194.311 298.377 191.292 297.087C188.06 295.728 185.307 294.979 183.034 294.839C174.351 294.316 165.88 296.617 159.008 289.82C157.8 288.635 157.622 287.293 158.475 285.794C159.718 283.598 159.736 281.506 158.528 279.519C165.987 271.258 176.251 264.548 189.321 259.389C194.435 257.368 199.993 256.392 205.996 256.461C200.952 262.387 197.33 266.221 195.128 267.964C188.095 273.576 188.877 274.936 197.472 272.043C221.516 263.991 246.271 255.503 271.736 246.579C276.637 244.854 280.313 245.063 284.042 248.775C284.684 249.422 285.471 249.908 286.334 250.19C287.197 250.473 288.111 250.543 288.997 250.396C296.633 249.246 304.322 246.736 312.065 242.867C314.515 241.229 319.133 240.584 325.916 240.933Z" fill="#97E1EB"/>
<path d="M141.534 275.389C146.257 283.232 151.922 284.608 158.528 279.519C159.736 281.506 159.718 283.598 158.475 285.794C157.623 287.292 157.8 288.634 159.008 289.82C165.88 296.617 174.351 294.316 183.034 294.839C185.307 294.978 188.06 295.728 191.292 297.087C194.311 298.377 197.17 299.074 199.869 299.179C204.557 299.667 209.405 298.83 214.413 296.669C216.757 302.839 220.149 306.133 224.588 306.551C194.044 316.625 173.64 322.934 163.376 325.478C151.336 328.459 142.226 320.302 139.403 309.113C136.632 298.272 137.343 287.031 141.534 275.389Z" fill="#B3C2C9"/>
<path d="M306.364 303.048L256.5 309.218C254.795 309.427 253.729 308.713 253.303 307.074C252.806 305.122 252.291 304.303 251.758 304.617C246.963 299.493 237.907 300.138 224.588 306.551C220.149 306.133 216.757 302.839 214.413 296.669C233.307 290.5 252.522 284.626 272.056 279.049C281.432 276.365 288.784 276.644 294.111 279.886C301.534 284.452 305.618 292.173 306.364 303.048Z" fill="#97E1EB"/>
<path d="M108.397 294.42C114.151 293.863 117.543 295.832 118.572 300.329C118.715 323.125 125.853 341.791 139.989 356.327C140.215 356.558 140.389 356.832 140.501 357.134C140.613 357.436 140.661 357.758 140.641 358.081C140.621 358.404 140.534 358.721 140.385 359.013C140.236 359.304 140.029 359.565 139.776 359.778L135.301 363.542C133.525 365.041 131.856 364.919 130.293 363.176C112.89 343.726 105.591 320.807 108.397 294.42Z" fill="#B3C2C9"/>
<path d="M306.364 303.048C306.862 305.732 306.453 308.294 305.139 310.734C304.251 312.407 302.884 313.488 301.037 313.976C284.38 318.368 267.67 323.422 250.906 329.138C241.778 332.206 234.906 336.964 230.289 343.412C226.169 349.129 227.518 350.959 234.338 348.902L296.029 330.027C299.794 328.912 300.611 329.975 298.48 333.217C288.606 348.589 274.418 359.081 255.914 364.693C231.727 372.082 206.031 379.786 178.826 387.803C177.085 388.326 175.967 389.441 175.469 391.149L175.097 392.456C175.024 392.713 175.024 392.984 175.097 393.241C175.17 393.497 175.312 393.73 175.51 393.913C175.707 394.095 175.951 394.222 176.216 394.279C176.482 394.335 176.758 394.32 177.014 394.234C186 391.341 194.24 390.731 201.734 392.404C205.356 393.206 205.356 394.042 201.734 394.914C179.039 400.596 157.924 410.512 138.391 424.664C135.94 426.407 135.105 425.85 135.887 422.991C141.8 400.404 149.045 372.274 170.568 358.575C197.241 341.6 224.304 323.614 251.758 304.616C252.291 304.303 252.806 305.122 253.303 307.074C253.729 308.712 254.795 309.427 256.5 309.218L306.364 303.048Z" fill="#3AC8E6"/>
<path d="M256.606 384.823C292.46 375.359 321.068 346.184 326.129 311.1C326.591 308.068 327.71 307.806 329.486 310.316L334.866 317.793C336.535 320.163 336.855 322.69 335.825 325.374C318.813 370.514 283.385 395.873 229.543 401.45C225.103 401.903 224.677 400.84 228.264 398.261C237.143 391.951 246.591 387.472 256.606 384.823Z" fill="#7490A0"/>
<g filter="url(#filter0_d_28_1096)">
<path d="M153.184 485.32C151.952 485.171 149.787 484.965 146.688 484.704C144.971 484.629 143.589 484.592 142.544 484.592C141.2 484.592 139.931 484.629 138.736 484.704V476.024H140.136C143.197 476.024 146.371 476.229 149.656 476.64C150.701 476.789 151.877 476.995 153.184 477.256V485.32ZM143.944 503.632C143.944 502.848 143.888 502.288 143.776 501.952C143.664 501.579 143.477 501.336 143.216 501.224C142.955 501.075 142.507 500.963 141.872 500.888L134.984 500.048C130.915 499.6 128.171 498.275 126.752 496.072C126.117 495.139 125.688 494 125.464 492.656C125.24 491.312 125.128 489.669 125.128 487.728C125.128 483.584 126.192 480.597 128.32 478.768C130.037 477.275 132.725 476.397 136.384 476.136V487.392C136.384 487.877 136.403 488.288 136.44 488.624C136.477 488.96 136.552 489.221 136.664 489.408C136.776 489.632 136.963 489.8 137.224 489.912C137.485 489.987 137.877 490.043 138.4 490.08L146.128 491.032C147.733 491.256 149.04 491.536 150.048 491.872C151.056 492.208 151.915 492.731 152.624 493.44C154.304 495.195 155.144 498.312 155.144 502.792C155.144 507.533 154.099 510.856 152.008 512.76C151.075 513.619 149.936 514.253 148.592 514.664C147.285 515.037 145.736 515.28 143.944 515.392V503.632ZM140.976 515.448C137.243 515.448 133.771 515.28 130.56 514.944C128.656 514.757 127.219 514.571 126.248 514.384V506.208C128.451 506.395 130.971 506.581 133.808 506.768C135.6 506.843 136.869 506.88 137.616 506.88C139.632 506.88 140.957 506.824 141.592 506.712V515.448H140.976ZM160.929 476.472H172.129V515H160.929V476.472ZM174.481 494.448H175.825C177.02 494.448 177.897 494.411 178.457 494.336C179.054 494.224 179.521 494 179.857 493.664C180.193 493.365 180.398 492.936 180.473 492.376C180.585 491.779 180.641 490.901 180.641 489.744C180.641 488.587 180.585 487.728 180.473 487.168C180.398 486.571 180.193 486.104 179.857 485.768C179.521 485.469 179.054 485.283 178.457 485.208C177.86 485.096 176.982 485.04 175.825 485.04H174.481V476.472H179.129C181.892 476.472 184.132 476.752 185.849 477.312C187.604 477.835 188.929 478.656 189.825 479.776C190.684 480.821 191.262 482.147 191.561 483.752C191.86 485.32 192.009 487.317 192.009 489.744C192.009 492.059 191.86 493.981 191.561 495.512C191.3 497.043 190.758 498.331 189.937 499.376C189.004 500.571 187.66 501.485 185.905 502.12C184.188 502.717 181.929 503.016 179.129 503.016H174.481V494.448ZM203.79 476.472H204.742L209.166 491.816L202.726 515H191.526L203.79 476.472ZM216.39 508.168H207.038L209.39 499.544H213.87L207.262 476.472H217.51L229.774 515H218.35L216.39 508.168ZM233.499 476.472H244.699V515H233.499V476.472ZM249.291 501.896H247.051V493.328H248.955C250.113 493.328 250.99 493.291 251.587 493.216C252.185 493.104 252.651 492.917 252.987 492.656C253.286 492.395 253.491 492.003 253.603 491.48C253.715 490.957 253.771 490.192 253.771 489.184C253.771 488.176 253.715 487.411 253.603 486.888C253.491 486.328 253.286 485.917 252.987 485.656C252.689 485.395 252.241 485.227 251.643 485.152C251.083 485.077 250.187 485.04 248.955 485.04H247.051V476.472H252.819C255.47 476.472 257.617 476.733 259.259 477.256C260.902 477.779 262.171 478.581 263.067 479.664C263.889 480.672 264.43 481.923 264.691 483.416C264.99 484.909 265.139 486.832 265.139 489.184C265.139 492.208 264.859 494.541 264.299 496.184C263.515 498.275 262.134 499.749 260.155 500.608L265.979 515H254.219L249.291 501.896ZM271.234 476.472H282.434V515H271.234V476.472ZM284.786 501.504V489.464L293.634 476.472H305.842L292.57 494.616L306.01 515H293.466L284.786 501.504Z" fill="white"/>
</g>
<defs>
<filter id="filter0_d_28_1096" x="125.128" y="476.024" width="186.882" height="46.4238" filterUnits="userSpaceOnUse" color-interpolation-filters="sRGB">
<feFlood flood-opacity="0" result="BackgroundImageFix"/>
<feColorMatrix in="SourceAlpha" type="matrix" values="0 0 0 0 0 0 0 0 0 0 0 0 0 0 0 0 0 0 127 0" result="hardAlpha"/>
<feOffset dx="3" dy="4"/>
<feGaussianBlur stdDeviation="1.5"/>
<feComposite in2="hardAlpha" operator="out"/>
<feColorMatrix type="matrix" values="0 0 0 0 0.960784 0 0 0 0 0.960784 0 0 0 0 0.960784 0 0 0 0.15 0"/>
<feBlend mode="normal" in2="BackgroundImageFix" result="effect1_dropShadow_28_1096"/>
<feBlend mode="normal" in="SourceGraphic" in2="effect1_dropShadow_28_1096" result="shape"/>
</filter>
</defs>
</svg>
