<svg width="16" height="16" viewBox="0 0 16 16" fill="none" xmlns="http://www.w3.org/2000/svg">
<path d="M10.9068 9.33333C10.9602 8.89333 11.0002 8.45333 11.0002 8C11.0002 7.54666 10.9602 7.10666 10.9068 6.66666H13.1602C13.2668 7.09333 13.3335 7.54 13.3335 8C13.3335 8.46 13.2668 8.90666 13.1602 9.33333M9.72683 13.04C10.1268 12.3 10.4335 11.5 10.6468 10.6667H12.6135C11.9676 11.7788 10.9429 12.6213 9.72683 13.04ZM9.56016 9.33333H6.44016C6.3735 8.89333 6.3335 8.45333 6.3335 8C6.3335 7.54666 6.3735 7.1 6.44016 6.66666H9.56016C9.62016 7.1 9.66683 7.54666 9.66683 8C9.66683 8.45333 9.62016 8.89333 9.56016 9.33333ZM8.00016 13.3067C7.44683 12.5067 7.00016 11.62 6.72683 10.6667H9.2735C9.00016 11.62 8.5535 12.5067 8.00016 13.3067ZM5.3335 5.33333H3.38683C4.02607 4.21814 5.05003 3.37432 6.26683 2.96C5.86683 3.7 5.56683 4.49999 5.3335 5.33333ZM3.38683 10.6667H5.3335C5.56683 11.5 5.86683 12.3 6.26683 13.04C5.05258 12.6211 4.03006 11.7785 3.38683 10.6667ZM2.84016 9.33333C2.7335 8.90666 2.66683 8.46 2.66683 8C2.66683 7.54 2.7335 7.09333 2.84016 6.66666H5.0935C5.04016 7.10666 5.00016 7.54666 5.00016 8C5.00016 8.45333 5.04016 8.89333 5.0935 9.33333M8.00016 2.68666C8.5535 3.48666 9.00016 4.38 9.2735 5.33333H6.72683C7.00016 4.38 7.44683 3.48666 8.00016 2.68666ZM12.6135 5.33333H10.6468C10.4382 4.50763 10.1292 3.71059 9.72683 2.96C10.9535 3.38 11.9735 4.22666 12.6135 5.33333ZM8.00016 1.33333C4.3135 1.33333 1.3335 4.33333 1.3335 8C1.3335 9.76811 2.03588 11.4638 3.28612 12.714C3.90517 13.3331 4.6401 13.8242 5.44894 14.1592C6.25778 14.4942 7.12468 14.6667 8.00016 14.6667C9.76827 14.6667 11.464 13.9643 12.7142 12.714C13.9645 11.4638 14.6668 9.76811 14.6668 8C14.6668 7.12452 14.4944 6.25761 14.1594 5.44877C13.8243 4.63993 13.3333 3.90501 12.7142 3.28595C12.0952 2.66689 11.3602 2.17583 10.5514 1.8408C9.74255 1.50577 8.87564 1.33333 8.00016 1.33333Z" fill="white"/>
</svg>
