<svg width="18" height="18" viewBox="0 0 18 18" fill="none" xmlns="http://www.w3.org/2000/svg">
<path d="M9.00083 0.666992C13.6033 0.666992 17.3342 4.39783 17.3342 9.00033C17.3342 13.6028 13.6033 17.3337 9.00083 17.3337C7.52814 17.336 6.08137 16.9463 4.80916 16.2045L0.670826 17.3337L1.79749 13.1937C1.05507 11.9211 0.665032 10.4737 0.667492 9.00033C0.667492 4.39783 4.39833 0.666992 9.00083 0.666992ZM6.16083 5.08366L5.99416 5.09033C5.88626 5.0969 5.78081 5.12524 5.68416 5.17366C5.59376 5.22485 5.51124 5.28885 5.43916 5.36366C5.33916 5.45783 5.28249 5.53949 5.22166 5.61866C4.91343 6.01941 4.74747 6.51142 4.74999 7.01699C4.75166 7.42533 4.85833 7.82283 5.02499 8.19449C5.36583 8.94616 5.92666 9.74199 6.66666 10.4795C6.84499 10.657 7.01999 10.8353 7.20833 11.0012C8.12782 11.8107 9.22354 12.3945 10.4083 12.7062L10.8817 12.7787C11.0358 12.787 11.19 12.7753 11.345 12.7678C11.5877 12.7553 11.8247 12.6896 12.0392 12.5753C12.1483 12.5191 12.2548 12.4579 12.3583 12.392C12.3583 12.392 12.3942 12.3687 12.4625 12.317C12.575 12.2337 12.6442 12.1745 12.7375 12.077C12.8067 12.0053 12.8667 11.9212 12.9125 11.8253C12.9775 11.6895 13.0425 11.4303 13.0692 11.2145C13.0892 11.0495 13.0833 10.9595 13.0808 10.9037C13.0775 10.8145 13.0033 10.722 12.9225 10.6828L12.4375 10.4653C12.4375 10.4653 11.7125 10.1495 11.2692 9.94783C11.2228 9.92757 11.1731 9.91599 11.1225 9.91366C11.0655 9.9078 11.0079 9.91422 10.9535 9.93247C10.8992 9.95073 10.8494 9.9804 10.8075 10.0195C10.8033 10.0178 10.7475 10.0653 10.145 10.7953C10.1104 10.8418 10.0628 10.8769 10.0082 10.8962C9.95354 10.9155 9.89442 10.9181 9.83832 10.9037C9.78404 10.8891 9.73085 10.8707 9.67916 10.8487C9.57582 10.8053 9.53999 10.7887 9.46916 10.7587C8.99088 10.5499 8.54806 10.268 8.15666 9.92283C8.05166 9.83116 7.95416 9.73116 7.85416 9.63449C7.52631 9.32052 7.24059 8.96533 7.00416 8.57783L6.95499 8.49866C6.91968 8.44546 6.89113 8.38808 6.86999 8.32783C6.83833 8.20533 6.92083 8.10699 6.92083 8.10699C6.92083 8.10699 7.12333 7.88532 7.21749 7.76533C7.30916 7.64866 7.38666 7.53533 7.43666 7.45449C7.53499 7.29616 7.56583 7.13366 7.51416 7.00783C7.28083 6.43783 7.03916 5.87033 6.79083 5.30699C6.74166 5.19533 6.59583 5.11533 6.46333 5.09949C6.41833 5.09449 6.37332 5.08949 6.32832 5.08616C6.21641 5.0806 6.10427 5.08171 5.99249 5.08949L6.16083 5.08366Z" fill="#1E313F"/>
</svg>
